<svg xmlns="http://www.w3.org/2000/svg" width="157.659" height="30.584" viewBox="0 0 157.659 30.584"><defs><style>.cls-1{fill:#000}</style></defs><path id="k_1_" class="cls-1" d="M.235 29.974V26.55l2.674-.516V3.753L0 3.424V0h8.678v19.561l5.16-6.1-1.638-.28V9.71h9.991v3.471l-2.392.281L14.682 19l5.582 7.036 1.923.516v3.424h-5.863S11.4 23.267 8.678 19.608v6.426l2.345.516v3.424H.235z"/><path id="_x31_i_1_" class="cls-1" d="M52.347 37.54v3.424H63V37.54l-2.345-.516V20.7H52.3v3.471l2.486.281v12.572z" transform="translate(-27.767 -10.99)"/><path id="_x31_i_dot_1_" class="cls-1" d="M57.7 1.7h5.864v5.535H57.7z" transform="translate(-30.634 -.903)"/><path id="n_1_" class="cls-1" d="M83.061 23.761l-2.815-.281v-3.472h8.49v2.533a8.31 8.31 0 0 1 6.52-3.143c3.565.047 5.817 2.017 6 5.582.141 3.1.094 6.239.094 9.335v2.017l2.768.563v3.425H95.68v-12.9c0-1.22.094-2.533-1.22-3.143a3.839 3.839 0 0 0-4.034.563 12.192 12.192 0 0 0-1.642 1.5v10.039l2.58.563v3.424H80.2v-3.424l2.815-.516z" transform="translate(-42.579 -10.298)"/><path id="e2_1_" class="cls-1" d="M133.2 30.37c0-6.989 4.175-11.07 10.461-11.07 5.723 0 8.678 3.753 8.678 9.382 0 .61-.094 1.876-.141 2.533h-13.041c.188 3.424 2.064 5.582 5.488 5.582a9.01 9.01 0 0 0 5.16-1.454l1.783 3.471a14.369 14.369 0 0 1-7.787 2.017c-6.755 0-10.601-3.987-10.601-10.461zm13.65-2.721c-.047-2.58-.985-4.6-3.518-4.6s-3.94 1.783-4.222 4.6z" transform="translate(-70.718 -10.247)"/><path id="c_1_" class="cls-1" d="M191.557 23.79a4.819 4.819 0 0 0-5.77 1.595 8.891 8.891 0 0 0 0 9.147c1.689 2.3 4.269 2.58 8.819.985.516 1.079 1.032 2.2 1.548 3.284-3.753 3-11.211 2.533-14.635-.8-3.565-3.471-3.893-10.461-.7-14.682 3.1-4.128 10.085-5.348 14.964-2.486v6.333h-3.753c-.192-1.03-.33-2.156-.473-3.376z" transform="translate(-94.831 -10.234)"/><path id="t_1_" class="cls-1" d="M234.291 30.638h-2.814c-1.5 0-2.252-1.22-2.252-3.237v-9.85l5.066-.281V13.8h-5.066V7.7h-5.582v6.1H220.5v3.471l3.143.281v10.7c0 3.94 1.689 6.426 6.52 6.426a20.973 20.973 0 0 0 4.081-.61v-3.43z" transform="translate(-117.067 -4.088)"/><path id="_x32_i_dot_2_" class="cls-1" d="M262.7 7.135V1.6h5.864v5.535z" transform="translate(-139.472 -.849)"/><path id="_x32_i_1_" class="cls-1" d="M265.272 37.024l2.674.516v3.424H256.5V37.54l2.908-.516V24.453l-2.908-.281V20.7h8.772v16.324z" transform="translate(-136.18 -10.99)"/><path id="v_1_" class="cls-1" d="M283.311 24.453l-2.111-.281V20.7h9.945v3.471l-2.064.281s2.533 7.083 3.847 10.789c1.313-3.659 3.846-10.789 3.846-10.789l-2.252-.281V20.7h12.29v3.471l-5.066.281s-4.316 10.93-6.52 16.465h-5.536c-2.064-5.441-6.379-16.464-6.379-16.464z" transform="translate(-149.293 -10.99)"/><path id="_x32_i_dot_1_" class="cls-1" d="M323.6 57.535V52h5.864v5.535z" transform="translate(-171.804 -27.608)"/></svg>